<svg width="24" height="23" viewBox="0 0 24 23" fill="none" xmlns="http://www.w3.org/2000/svg">
<g clip-path="url(#clip0_122_816)">
<path opacity="0.2" d="M21.3836 12.455C21.3433 15.033 19.3263 17.0287 16.753 17.0453C12.9511 17.0689 9.15148 17.0689 5.34952 17.0453C3.2118 17.0311 1.37001 15.4781 0.917844 13.3877C0.865762 13.1463 0.832621 12.9024 0.790009 12.6586V4.63091C0.825519 4.40837 0.851559 4.18348 0.896538 3.96331C1.37238 1.72617 3.25442 0.215798 5.57915 0.21343C9.25564 0.211063 12.9321 0.211063 16.6086 0.21343C16.8572 0.21343 17.1058 0.225267 17.352 0.260778C19.6696 0.604043 21.3504 2.47425 21.3836 4.82503C21.4214 7.36756 21.4238 9.91246 21.3836 12.455Z" fill="#A0A3AA"/>
<path d="M23.7509 6.95564C23.7178 4.6025 22.0369 2.73229 19.7193 2.39139C19.4755 2.35588 19.2245 2.34404 18.9783 2.34404C15.3018 2.34404 11.623 2.3393 7.94649 2.34404C5.62412 2.34404 3.73972 3.85678 3.26625 6.09393C3.22127 6.31409 3.19286 6.53899 3.15735 6.76388V14.7892C3.19996 15.033 3.2331 15.2769 3.28519 15.5183C3.73735 17.6087 5.57914 19.1617 7.71686 19.1759C11.5188 19.2019 15.3184 19.2019 19.1204 19.1759C21.6913 19.1593 23.7107 17.166 23.7509 14.5856C23.7911 12.0431 23.7864 9.49817 23.7509 6.95564ZM7.43278 8.06593C7.57955 7.99727 7.75474 7.95939 7.91808 7.95939C9.74568 7.95229 11.5709 7.95229 13.4009 7.95466C13.9903 7.95466 14.3999 8.34764 14.3999 8.89213C14.3999 9.43662 13.988 9.82723 13.4009 9.82723C12.48 9.82723 11.5591 9.82723 10.6382 9.82723C9.71727 9.82723 8.78216 9.83197 7.8518 9.82723C7.4091 9.82723 7.03743 9.52421 6.94037 9.10993C6.84094 8.68854 7.03743 8.24821 7.43278 8.06356V8.06593ZM20.001 12.7698C19.9513 13.2054 19.5773 13.5582 19.1204 13.5629C18.1616 13.5747 17.2076 13.5676 16.2488 13.5676C15.3137 13.5676 14.3762 13.5676 13.4411 13.5676C11.5993 13.5676 9.75751 13.5676 7.91572 13.5676C7.28837 13.5676 6.87882 13.1415 6.9238 12.5473C6.95221 12.1165 7.31204 11.7495 7.7429 11.7116C7.82812 11.7045 7.91808 11.7045 8.00331 11.7045C11.6443 11.7045 15.2829 11.7045 18.9239 11.7045C19.0612 11.7045 19.2056 11.7045 19.3358 11.74C19.788 11.8631 20.0578 12.2845 20.001 12.7651V12.7698Z" fill="white" fill-opacity="0.6"/>
<path d="M7.71902 22.3931C7.65984 22.3694 7.60066 22.3458 7.54147 22.3244C7.10588 22.1658 6.86204 21.7492 6.9307 21.2828C6.99462 20.8638 7.37339 20.53 7.81372 20.5111C7.84213 20.5111 7.8729 20.5111 7.90131 20.5111C11.6109 20.5111 15.3206 20.5111 19.0278 20.5111C19.4208 20.5111 19.7238 20.6697 19.9061 21.0177C20.0742 21.3396 20.0458 21.664 19.8517 21.9741C19.7025 22.2132 19.4563 22.3031 19.2125 22.3955H7.71902V22.3931Z" fill="white" fill-opacity="0.6"/>
</g>
<defs>
<clipPath id="clip0_122_816">
<rect width="23.2" height="22.4898" fill="white" transform="translate(0.790009 -0.00436401)"/>
</clipPath>
</defs>
</svg>
