<svg width="222" height="296" viewBox="0 0 222 296" fill="none" xmlns="http://www.w3.org/2000/svg">
<g clip-path="url(#clip0_480_7469)">
<path d="M4.25957 295.22C2.21957 295.22 0.55957 293.56 0.55957 291.52C0.55957 289.48 2.21957 287.82 4.25957 287.82H50.9296C53.3396 287.82 54.5296 289.64 54.6196 291.33C54.7096 293.01 53.7096 294.93 51.3296 295.18L50.9696 295.22H4.25957ZM4.25957 289.22C2.98957 289.22 1.95957 290.25 1.95957 291.52C1.95957 292.79 2.98957 293.82 4.25957 293.82H50.8896L51.1796 293.79C52.6596 293.64 53.2696 292.48 53.2096 291.41C53.1496 290.33 52.4196 289.23 50.9196 289.23H4.25957V289.22Z" fill="url(#paint0_linear_480_7469)"/>
<path d="M85.9896 280.87H4.25957C2.21957 280.87 0.55957 279.21 0.55957 277.17C0.55957 275.13 2.21957 273.47 4.25957 273.47H86.1096C88.1396 273.47 89.3696 274.91 89.6996 276.34C90.0196 277.76 89.5296 279.58 87.7196 280.45L87.5996 280.51C87.1096 280.75 86.5496 280.87 85.9996 280.87H85.9896ZM86.9896 279.24L87.4096 279.82L87.1096 279.19C88.3096 278.62 88.5196 277.46 88.3296 276.65C88.1396 275.83 87.4496 274.87 86.1096 274.87H4.25957C2.98957 274.87 1.95957 275.9 1.95957 277.17C1.95957 278.44 2.98957 279.47 4.25957 279.47H85.9896C86.3396 279.47 86.6796 279.39 86.9896 279.25V279.24Z" fill="url(#paint1_linear_480_7469)"/>
<path d="M108.5 266.51H4.25957C2.21957 266.51 0.55957 264.85 0.55957 262.81C0.55957 260.77 2.21957 259.11 4.25957 259.11H108.57C110.13 259.11 111.49 260.06 112.02 261.53C112.56 263 112.13 264.59 110.94 265.6C110.21 266.21 109.37 266.52 108.5 266.52V266.51ZM4.25957 260.51C2.98957 260.51 1.95957 261.54 1.95957 262.81C1.95957 264.08 2.98957 265.11 4.25957 265.11H108.5C109.04 265.11 109.56 264.92 109.97 264.58C110.93 263.77 110.97 262.73 110.71 262.01C110.45 261.29 109.75 260.51 108.57 260.51H4.25957Z" fill="url(#paint2_linear_480_7469)"/>
<path d="M122.25 252.16H4.25957C2.21957 252.16 0.55957 250.5 0.55957 248.46C0.55957 246.42 2.21957 244.76 4.25957 244.76H122.3C123.71 244.76 124.97 245.55 125.6 246.81C126.23 248.07 126.07 249.56 125.21 250.68C124.48 251.63 123.39 252.16 122.25 252.16ZM4.25957 246.16C2.98957 246.16 1.95957 247.19 1.95957 248.46C1.95957 249.73 2.98957 250.76 4.25957 250.76H122.25C122.96 250.76 123.63 250.43 124.05 249.89C124.64 249.13 124.73 248.23 124.34 247.44C123.95 246.64 123.19 246.17 122.3 246.17H4.25957V246.16Z" fill="url(#paint3_linear_480_7469)"/>
<path d="M131.38 237.81H4.25957C2.21957 237.81 0.55957 236.15 0.55957 234.11C0.55957 232.07 2.21957 230.41 4.25957 230.41H131.41C132.7 230.41 133.87 231.07 134.54 232.17C135.21 233.28 135.26 234.63 134.66 235.79C134 237.06 132.75 237.81 131.37 237.81H131.38ZM4.25957 231.81C2.98957 231.81 1.95957 232.84 1.95957 234.11C1.95957 235.38 2.98957 236.41 4.25957 236.41H131.38C132.23 236.41 133 235.95 133.39 235.2C133.79 234.42 133.76 233.58 133.35 232.89C132.94 232.21 132.21 231.8 131.41 231.8H4.25957V231.81Z" fill="url(#paint4_linear_480_7469)"/>
<path d="M141.609 209.11H66.7487C65.3387 209.11 64.1187 208.36 63.4887 207.1C62.8587 205.83 62.9987 204.33 63.8587 203.19C64.5687 202.24 65.6487 201.71 66.7987 201.71H141.619C142.739 201.71 143.789 202.21 144.489 203.09C145.189 203.97 145.449 205.11 145.209 206.21C144.819 207.92 143.319 209.11 141.609 209.11ZM66.7987 203.11C66.0887 203.11 65.4287 203.43 65.0187 203.97C64.4187 204.77 64.3387 205.68 64.7387 206.48C65.1287 207.25 65.8787 207.71 66.7487 207.71H141.609C142.659 207.71 143.599 206.97 143.829 205.96C143.999 205.22 143.829 204.51 143.399 203.96C142.969 203.42 142.319 203.11 141.629 203.11H66.8087H66.7987Z" fill="url(#paint5_linear_480_7469)"/>
<path d="M144.16 194.76H73.14C72.01 194.76 70.96 194.25 70.26 193.37C69.56 192.48 69.31 191.35 69.58 190.25C69.99 188.53 71.46 187.37 73.16 187.37H144.17C145.23 187.37 146.23 187.83 146.93 188.62C147.63 189.42 147.95 190.48 147.81 191.54C147.56 193.41 146 194.77 144.16 194.77V194.76ZM73.16 188.76C72.11 188.76 71.2 189.48 70.96 190.51C70.78 191.25 70.94 191.95 71.37 192.5C71.8 193.05 72.45 193.36 73.15 193.36H144.17C145.3 193.36 146.27 192.52 146.42 191.4C146.51 190.68 146.32 190.02 145.88 189.53C145.45 189.04 144.83 188.76 144.18 188.76H73.17H73.16Z" fill="url(#paint6_linear_480_7469)"/>
<path d="M145.57 180.4H75.1698C74.1598 180.4 73.1798 179.98 72.4898 179.23C71.7998 178.49 71.4398 177.48 71.5198 176.47C71.6598 174.5 73.2698 173 75.1798 173H145.58C146.61 173 147.56 173.41 148.26 174.16C148.95 174.9 149.31 175.91 149.25 176.93C149.12 178.9 147.51 180.4 145.58 180.4H145.57ZM75.1698 174.4C73.9898 174.4 72.9898 175.33 72.9098 176.51C72.8598 177.21 73.0798 177.81 73.5098 178.28C73.9398 178.74 74.5298 179 75.1698 179H145.57C146.76 179 147.76 178.08 147.83 176.9C147.88 176.2 147.66 175.59 147.22 175.12C146.79 174.66 146.2 174.4 145.57 174.4H75.1698Z" fill="url(#paint7_linear_480_7469)"/>
<path d="M146.159 166.05H75.6988C74.7088 166.05 73.7788 165.66 73.0888 164.96C72.3988 164.26 72.0188 163.33 72.0388 162.34C72.0688 160.28 73.7088 158.65 75.7088 158.65H146.169C147.159 158.65 148.089 159.04 148.789 159.75C149.489 160.46 149.859 161.4 149.839 162.4C149.799 164.44 148.159 166.05 146.169 166.05H146.159ZM75.6888 160.05C74.4588 160.05 73.4388 161.06 73.4188 162.29C73.4188 162.96 73.6388 163.54 74.0688 163.97C74.4988 164.41 75.0688 164.64 75.6888 164.64H146.149C147.379 164.64 148.399 163.64 148.419 162.42C148.429 161.74 148.199 161.16 147.769 160.72C147.339 160.28 146.769 160.04 146.149 160.04H75.6888V160.05Z" fill="url(#paint8_linear_480_7469)"/>
<path d="M146.249 151.7H75.7491C73.7291 151.7 72.0791 150.05 72.0791 148.03C72.0791 146.01 73.7291 144.3 75.7491 144.3H146.249C148.269 144.3 149.919 145.95 149.919 147.97C149.919 149.99 148.269 151.7 146.249 151.7ZM75.7491 145.7C74.4991 145.7 73.4791 146.72 73.4791 147.97C73.4791 149.22 74.4991 150.3 75.7491 150.3H146.249C147.499 150.3 148.519 149.28 148.519 148.03C148.519 146.72 147.499 145.7 146.249 145.7H75.7491Z" fill="url(#paint9_linear_480_7469)"/>
<path d="M146.309 137.35H75.8495C74.8595 137.35 73.9295 136.96 73.2295 136.25C72.5295 135.54 72.1595 134.6 72.1795 133.6C72.2195 131.56 73.8695 129.95 75.8495 129.95H146.309C147.299 129.95 148.229 130.34 148.919 131.04C149.609 131.74 149.989 132.67 149.969 133.66C149.939 135.72 148.299 137.35 146.299 137.35H146.309ZM75.8495 131.35C74.6195 131.35 73.5995 132.35 73.5795 133.57C73.5695 134.25 73.7995 134.83 74.2295 135.27C74.6595 135.71 75.2295 135.95 75.8495 135.95H146.309C147.539 135.95 148.559 134.94 148.579 133.71C148.579 133.04 148.359 132.46 147.929 132.03C147.499 131.59 146.929 131.36 146.309 131.36H75.8495V131.35Z" fill="url(#paint10_linear_480_7469)"/>
<path d="M146.829 123H76.4294C75.3994 123 74.4494 122.59 73.7494 121.84C73.0594 121.1 72.6994 120.09 72.7594 119.07C72.8894 117.1 74.4994 115.6 76.4294 115.6H146.829C147.839 115.6 148.819 116.02 149.509 116.77C150.199 117.51 150.559 118.52 150.479 119.53C150.339 121.51 148.739 123 146.819 123H146.829ZM76.4294 117C75.2394 117 74.2394 117.92 74.1594 119.1C74.1094 119.8 74.3294 120.41 74.7694 120.88C75.1994 121.34 75.7894 121.6 76.4194 121.6H146.819C147.999 121.6 148.999 120.67 149.079 119.49C149.129 118.79 148.919 118.18 148.479 117.72C148.049 117.26 147.459 117 146.819 117H76.4194H76.4294Z" fill="url(#paint11_linear_480_7469)"/>
<path d="M148.839 108.64H77.8295C76.7695 108.64 75.7695 108.18 75.0695 107.39C74.3695 106.59 74.0495 105.53 74.1895 104.47C74.4395 102.6 75.9995 101.24 77.8395 101.24H148.859C149.989 101.24 151.039 101.75 151.739 102.63C152.439 103.52 152.689 104.65 152.429 105.75C152.019 107.47 150.559 108.63 148.849 108.63L148.839 108.64ZM77.8395 102.64C76.7095 102.64 75.7395 103.48 75.5895 104.6C75.4995 105.32 75.6895 105.98 76.1295 106.47C76.5595 106.96 77.1795 107.24 77.8295 107.24H148.839C149.889 107.24 150.799 106.52 151.039 105.49C151.219 104.75 151.059 104.04 150.629 103.5C150.199 102.96 149.549 102.64 148.849 102.64H77.8295H77.8395Z" fill="url(#paint12_linear_480_7469)"/>
<path d="M155.199 94.29H80.3694C79.2494 94.29 78.1994 93.79 77.5094 92.91C76.8094 92.03 76.5494 90.89 76.7894 89.79C77.1794 88.08 78.6794 86.89 80.3794 86.89H155.239C156.649 86.89 157.869 87.64 158.499 88.9C159.129 90.17 158.989 91.67 158.129 92.81C157.419 93.76 156.339 94.29 155.189 94.29H155.199ZM80.3894 88.29C79.3394 88.29 78.3994 89.03 78.1794 90.04C78.0094 90.79 78.1794 91.49 78.6094 92.04C79.0394 92.58 79.6894 92.89 80.3794 92.89H155.209C155.919 92.89 156.589 92.57 156.989 92.03C157.589 91.24 157.669 90.32 157.269 89.52C156.879 88.75 156.129 88.29 155.259 88.29H80.3994H80.3894Z" fill="url(#paint13_linear_480_7469)"/>
<path d="M217.739 22.53H135.889C133.859 22.53 132.629 21.09 132.299 19.66C131.979 18.24 132.469 16.42 134.279 15.55L134.399 15.49C134.899 15.25 135.449 15.13 135.999 15.13H217.729C219.769 15.13 221.429 16.79 221.429 18.83C221.429 20.87 219.769 22.53 217.729 22.53H217.739ZM134.589 16.18L134.889 16.81C133.689 17.38 133.479 18.54 133.669 19.35C133.859 20.17 134.549 21.13 135.889 21.13H217.739C219.009 21.13 220.039 20.1 220.039 18.83C220.039 17.56 219.009 16.53 217.739 16.53H136.009C135.669 16.53 135.319 16.61 135.009 16.76L134.589 16.18Z" fill="url(#paint14_linear_480_7469)"/>
<path d="M217.739 36.88H113.439C111.879 36.88 110.519 35.93 109.989 34.46C109.449 32.99 109.879 31.4 111.069 30.39C111.799 29.78 112.639 29.47 113.509 29.47H217.739C219.779 29.47 221.439 31.13 221.439 33.17C221.439 35.21 219.779 36.87 217.739 36.87V36.88ZM113.509 30.88C112.969 30.88 112.449 31.07 112.039 31.41C111.079 32.22 111.039 33.26 111.299 33.98C111.559 34.7 112.259 35.48 113.439 35.48H217.739C219.009 35.48 220.039 34.45 220.039 33.18C220.039 31.91 219.009 30.88 217.739 30.88H113.509Z" fill="url(#paint15_linear_480_7469)"/>
<path d="M217.74 51.2401H99.7C98.29 51.2401 97.03 50.4501 96.4 49.1901C95.78 47.9201 95.92 46.4401 96.79 45.3201C97.52 44.3701 98.61 43.8401 99.75 43.8401H217.74C219.78 43.8401 221.44 45.5001 221.44 47.5401C221.44 49.5801 219.78 51.2401 217.74 51.2401ZM99.75 45.2401C99.04 45.2401 98.37 45.5701 97.95 46.1201C97.36 46.8801 97.27 47.7801 97.67 48.5701C98.06 49.3701 98.82 49.8401 99.71 49.8401H217.75C219.02 49.8401 220.05 48.8101 220.05 47.5401C220.05 46.2701 219.02 45.2401 217.75 45.2401H99.76H99.75Z" fill="url(#paint16_linear_480_7469)"/>
<path d="M217.739 65.5901H90.5893C89.2993 65.5901 88.1293 64.9301 87.4593 63.8301C86.7893 62.7201 86.7393 61.3701 87.3393 60.2101C87.9993 58.9401 89.2493 58.1901 90.6193 58.1901H217.739C219.779 58.1901 221.439 59.8501 221.439 61.8901C221.439 63.9301 219.779 65.5901 217.739 65.5901ZM90.6193 59.5901C89.7693 59.5901 88.9993 60.0501 88.6093 60.8001C88.2093 61.5801 88.2293 62.4201 88.6493 63.1101C89.0593 63.7901 89.7893 64.2001 90.5893 64.2001H217.739C219.009 64.2001 220.039 63.1701 220.039 61.9001C220.039 60.6301 219.009 59.6001 217.739 59.6001H90.6193V59.5901Z" fill="url(#paint17_linear_480_7469)"/>
<path d="M183.109 79.94H84.449C83.249 79.94 82.159 79.38 81.459 78.4C80.769 77.43 80.589 76.18 80.979 75.05L81.039 74.91C81.509 73.52 82.899 72.54 84.459 72.54H187.749C189.789 72.54 191.439 74.2 191.439 76.23C191.439 78.26 189.789 79.92 187.759 79.92C185.749 79.92 184.239 79.92 183.109 79.92V79.94ZM84.459 73.94C83.499 73.94 82.639 74.55 82.329 75.45L82.269 75.59C82.059 76.22 82.169 76.97 82.599 77.59C83.029 78.2 83.709 78.55 84.449 78.55H180.049C180.049 78.55 180.259 78.55 180.489 78.55C180.779 78.55 181.149 78.55 181.609 78.55H187.749C189.009 78.55 190.029 77.52 190.029 76.25C190.029 74.98 188.999 73.96 187.739 73.96H84.449L84.459 73.94Z" fill="url(#paint18_linear_480_7469)"/>
<path d="M4.25957 295.22C2.21957 295.22 0.55957 293.56 0.55957 291.52C0.55957 289.48 2.21957 287.82 4.25957 287.82H50.9296C53.3396 287.82 54.5296 289.64 54.6196 291.33C54.7096 293.01 53.7096 294.93 51.3296 295.18L50.9696 295.22H4.25957ZM4.25957 289.22C2.98957 289.22 1.95957 290.25 1.95957 291.52C1.95957 292.79 2.98957 293.82 4.25957 293.82H50.8896L51.1796 293.79C52.6596 293.64 53.2696 292.48 53.2096 291.41C53.1496 290.33 52.4196 289.23 50.9196 289.23H4.25957V289.22Z" fill="url(#paint19_linear_480_7469)"/>
<path d="M85.9896 280.87H4.25957C2.21957 280.87 0.55957 279.21 0.55957 277.17C0.55957 275.13 2.21957 273.47 4.25957 273.47H86.1096C88.1396 273.47 89.3696 274.91 89.6996 276.34C90.0196 277.76 89.5296 279.58 87.7196 280.45L87.4196 279.82L87.6596 280.48C87.1096 280.75 86.5496 280.87 85.9996 280.87H85.9896ZM86.9896 279.24L87.4096 279.82L87.1096 279.19C88.3096 278.62 88.5196 277.46 88.3296 276.65C88.1396 275.83 87.4496 274.87 86.1096 274.87H4.25957C2.98957 274.87 1.95957 275.9 1.95957 277.17C1.95957 278.44 2.98957 279.47 4.25957 279.47H85.9896C86.3396 279.47 86.6796 279.39 86.9896 279.25V279.24Z" fill="url(#paint20_linear_480_7469)"/>
<path d="M108.5 266.51H4.25957C2.21957 266.51 0.55957 264.85 0.55957 262.81C0.55957 260.77 2.21957 259.11 4.25957 259.11H108.57C110.13 259.11 111.49 260.06 112.02 261.53C112.56 263 112.13 264.59 110.94 265.6L110.49 265.06L110.88 265.65C110.21 266.21 109.37 266.52 108.5 266.52V266.51ZM4.25957 260.51C2.98957 260.51 1.95957 261.54 1.95957 262.81C1.95957 264.08 2.98957 265.11 4.25957 265.11H108.5C109.04 265.11 109.56 264.92 109.97 264.58L110.49 265.06L110.04 264.52C110.94 263.77 110.97 262.73 110.71 262C110.45 261.28 109.75 260.5 108.57 260.5H4.25957V260.51Z" fill="url(#paint21_linear_480_7469)"/>
<path d="M122.25 252.16H4.25957C2.21957 252.16 0.55957 250.5 0.55957 248.46C0.55957 246.42 2.21957 244.76 4.25957 244.76H122.3C123.71 244.76 124.97 245.55 125.6 246.81C126.23 248.07 126.07 249.56 125.21 250.68L124.66 250.25L125.2 250.7C124.49 251.62 123.4 252.15 122.26 252.15L122.25 252.16ZM4.25957 246.16C2.98957 246.16 1.95957 247.19 1.95957 248.46C1.95957 249.73 2.98957 250.76 4.25957 250.76H122.25C122.96 250.76 123.63 250.43 124.05 249.89L124.65 250.26L124.1 249.83C124.64 249.13 124.73 248.23 124.34 247.44C123.95 246.64 123.19 246.17 122.3 246.17H4.25957V246.16Z" fill="url(#paint22_linear_480_7469)"/>
<path d="M131.38 237.81H4.25957C2.21957 237.81 0.55957 236.15 0.55957 234.11C0.55957 232.07 2.21957 230.41 4.25957 230.41H131.41C132.7 230.41 133.87 231.07 134.54 232.17C135.21 233.28 135.26 234.63 134.66 235.79V235.81L134.04 235.47L134.63 235.84C134 237.06 132.75 237.81 131.37 237.81H131.38ZM4.25957 231.81C2.98957 231.81 1.95957 232.84 1.95957 234.11C1.95957 235.38 2.98957 236.41 4.25957 236.41H131.38C132.23 236.41 133 235.95 133.39 235.2L134.04 235.46L133.42 235.14C133.79 234.42 133.76 233.58 133.35 232.89C132.94 232.21 132.21 231.8 131.41 231.8H4.25957V231.81Z" fill="url(#paint23_linear_480_7469)"/>
<path d="M137.52 223.46H32.2596C30.2196 223.46 28.5596 221.8 28.5596 219.76C28.5596 217.72 30.2196 216.06 32.2596 216.06H137.52C138.71 216.06 139.84 216.64 140.54 217.62C141.24 218.6 141.42 219.82 141.02 220.95L140.97 221.06L140.36 220.72L140.96 221.08C140.48 222.47 139.09 223.46 137.52 223.46ZM32.2596 217.46C30.9896 217.46 29.9596 218.49 29.9596 219.76C29.9596 221.03 30.9896 222.06 32.2596 222.06H137.52C138.49 222.06 139.36 221.45 139.67 220.55L139.72 220.44C139.94 219.75 139.83 219.02 139.4 218.42C138.96 217.8 138.28 217.45 137.52 217.45H32.2596V217.46Z" fill="url(#paint24_linear_480_7469)"/>
<path d="M141.609 209.11H66.7487C65.3387 209.11 64.1187 208.36 63.4887 207.1C62.8587 205.83 62.9987 204.33 63.8587 203.19C64.5687 202.24 65.6487 201.71 66.7987 201.71H141.619C142.739 201.71 143.789 202.21 144.489 203.09C145.189 203.97 145.449 205.11 145.209 206.21V206.23L144.529 206.06L145.199 206.26C144.819 207.92 143.319 209.12 141.609 209.12V209.11ZM66.7987 203.11C66.0887 203.11 65.4287 203.43 65.0187 203.97C64.4187 204.77 64.3387 205.68 64.7387 206.48C65.1287 207.25 65.8787 207.71 66.7487 207.71H141.609C142.659 207.71 143.599 206.97 143.829 205.96L144.529 206.06L143.849 205.91C143.999 205.23 143.849 204.52 143.409 203.97C142.979 203.43 142.329 203.12 141.639 203.12H66.8187L66.7987 203.11Z" fill="url(#paint25_linear_480_7469)"/>
<path d="M144.16 194.76H73.14C72.01 194.76 70.96 194.25 70.26 193.37C69.56 192.48 69.31 191.35 69.58 190.25C69.99 188.53 71.46 187.37 73.16 187.37H144.17C145.23 187.37 146.23 187.83 146.93 188.62C147.63 189.42 147.95 190.47 147.81 191.52V191.59C147.56 193.4 146 194.76 144.16 194.76ZM73.16 188.76C72.11 188.76 71.2 189.48 70.96 190.51C70.78 191.25 70.94 191.95 71.37 192.5C71.8 193.05 72.45 193.36 73.15 193.36H144.17C145.3 193.36 146.27 192.52 146.42 191.4L147.12 191.43L146.43 191.34C146.52 190.68 146.32 190.03 145.89 189.53C145.46 189.04 144.84 188.76 144.19 188.76H73.18H73.16Z" fill="url(#paint26_linear_480_7469)"/>
<path d="M145.57 180.4H75.1698C74.1598 180.4 73.1798 179.98 72.4898 179.23C71.7998 178.49 71.4398 177.48 71.5198 176.47C71.6598 174.5 73.2698 173 75.1798 173H145.58C146.61 173 147.56 173.41 148.26 174.16C148.95 174.9 149.31 175.91 149.25 176.93V176.95L148.55 176.88L149.25 176.96C149.12 178.9 147.51 180.4 145.59 180.4H145.57ZM75.1698 174.4C73.9898 174.4 72.9898 175.33 72.9098 176.51C72.8598 177.21 73.0798 177.81 73.5098 178.28C73.9398 178.74 74.5298 179 75.1698 179H145.57C146.76 179 147.76 178.08 147.83 176.9H148.53L147.83 176.84C147.87 176.2 147.66 175.59 147.22 175.12C146.79 174.66 146.2 174.4 145.57 174.4H75.1698Z" fill="url(#paint27_linear_480_7469)"/>
<path d="M146.159 166.05H75.6988C74.7088 166.05 73.7788 165.66 73.0888 164.96C72.3988 164.26 72.0188 163.33 72.0388 162.34C72.0688 160.28 73.7088 158.65 75.7088 158.65H146.169C147.159 158.65 148.089 159.04 148.789 159.75C149.489 160.46 149.859 161.4 149.839 162.39V162.48C149.799 164.44 148.159 166.05 146.169 166.05H146.159ZM75.6888 160.05C74.4588 160.05 73.4388 161.06 73.4188 162.29C73.4188 162.96 73.6388 163.54 74.0688 163.97C74.4988 164.41 75.0688 164.64 75.6888 164.64H146.149C147.379 164.64 148.399 163.64 148.419 162.42V162.36C148.429 161.74 148.199 161.16 147.769 160.72C147.339 160.28 146.769 160.04 146.149 160.04H75.6888V160.05Z" fill="url(#paint28_linear_480_7469)"/>
<path d="M146.249 151.7H75.7491C73.7291 151.7 72.0791 150.05 72.0791 148.03C72.0791 146.01 73.7291 144.3 75.7491 144.3H146.249C148.269 144.3 149.919 145.95 149.919 147.97V148.03C149.919 150.05 148.269 151.7 146.249 151.7ZM75.7491 145.7C74.4991 145.7 73.4791 146.72 73.4791 147.97C73.4791 149.22 74.4991 150.3 75.7491 150.3H146.249C147.499 150.3 148.519 149.28 148.519 148.03V147.97C148.519 146.72 147.499 145.7 146.249 145.7H75.7491Z" fill="url(#paint29_linear_480_7469)"/>
<path d="M146.309 137.35H75.8495C74.8595 137.35 73.9295 136.96 73.2295 136.25C72.5295 135.54 72.1595 134.6 72.1795 133.6C72.2195 131.56 73.8695 129.95 75.8495 129.95H146.309C147.299 129.95 148.229 130.34 148.919 131.04C149.609 131.74 149.989 132.67 149.969 133.66V133.7C149.939 135.72 148.299 137.35 146.299 137.35H146.309ZM75.8495 131.35C74.6195 131.35 73.5995 132.35 73.5795 133.57C73.5695 134.25 73.7995 134.83 74.2295 135.27C74.6595 135.71 75.2295 135.95 75.8495 135.95H146.309C147.539 135.95 148.559 134.94 148.579 133.71V133.65C148.579 133.04 148.359 132.46 147.929 132.03C147.499 131.59 146.929 131.36 146.309 131.36H75.8495V131.35Z" fill="url(#paint30_linear_480_7469)"/>
<path d="M146.829 123H76.4294C75.3994 123 74.4494 122.59 73.7494 121.84C73.0594 121.1 72.6994 120.09 72.7594 119.07C72.8894 117.1 74.4994 115.6 76.4294 115.6H146.829C147.839 115.6 148.819 116.02 149.509 116.77C150.199 117.51 150.559 118.52 150.479 119.53V119.55L149.779 119.49L150.479 119.57C150.339 121.51 148.739 123.01 146.819 123.01L146.829 123ZM76.4294 117C75.2394 117 74.2394 117.92 74.1594 119.1C74.1094 119.8 74.3294 120.41 74.7694 120.88C75.1994 121.34 75.7894 121.6 76.4194 121.6H146.819C147.999 121.6 148.999 120.67 149.079 119.49V119.43C149.129 118.79 148.919 118.19 148.479 117.72C148.049 117.26 147.459 117 146.819 117H76.4194H76.4294Z" fill="url(#paint31_linear_480_7469)"/>
<path d="M148.839 108.64H77.8295C76.7695 108.64 75.7695 108.18 75.0695 107.39C74.3695 106.59 74.0495 105.53 74.1895 104.47C74.4395 102.6 75.9995 101.24 77.8395 101.24H148.859C149.989 101.24 151.039 101.75 151.739 102.63C152.439 103.52 152.689 104.65 152.429 105.75L151.749 105.59L152.419 105.81C152.029 107.47 150.559 108.63 148.859 108.63L148.839 108.64ZM77.8395 102.64C76.7095 102.64 75.7395 103.48 75.5895 104.6C75.4995 105.32 75.6895 105.98 76.1295 106.47C76.5595 106.96 77.1795 107.24 77.8295 107.24H148.839C149.889 107.24 150.799 106.52 151.039 105.49V105.43C151.219 104.75 151.059 104.05 150.629 103.5C150.199 102.95 149.549 102.64 148.849 102.64H77.8295H77.8395Z" fill="url(#paint32_linear_480_7469)"/>
<path d="M155.199 94.29H80.3694C79.2494 94.29 78.1994 93.79 77.5094 92.91C76.8094 92.03 76.5494 90.89 76.7894 89.79C77.1794 88.08 78.6794 86.89 80.3794 86.89H155.239C156.649 86.89 157.869 87.64 158.499 88.9C159.129 90.17 158.989 91.66 158.139 92.81L158.109 92.85C157.419 93.77 156.339 94.3 155.189 94.3L155.199 94.29ZM80.3894 88.29C79.3394 88.29 78.3994 89.03 78.1794 90.04C78.0094 90.79 78.1794 91.49 78.6094 92.04C79.0394 92.58 79.6894 92.89 80.3794 92.89H155.209C155.919 92.89 156.589 92.57 156.989 92.03L157.039 91.96C157.589 91.23 157.669 90.32 157.269 89.51C156.879 88.74 156.129 88.28 155.259 88.28H80.3994L80.3894 88.29Z" fill="url(#paint33_linear_480_7469)"/>
<path d="M217.739 65.5901H90.5893C89.2993 65.5901 88.1293 64.9301 87.4593 63.8301C86.7893 62.7201 86.7393 61.3701 87.3393 60.2101C87.9993 58.9401 89.2493 58.1901 90.6193 58.1901H217.739C219.779 58.1901 221.439 59.8501 221.439 61.8901C221.439 63.9301 219.779 65.5901 217.739 65.5901ZM90.6193 59.5901C89.7693 59.5901 88.9993 60.0501 88.6093 60.8001C88.2093 61.5801 88.2293 62.4201 88.6493 63.1101C89.0593 63.7901 89.7893 64.2001 90.5893 64.2001H217.739C219.009 64.2001 220.039 63.1701 220.039 61.9001C220.039 60.6301 219.009 59.6001 217.739 59.6001H90.6193V59.5901Z" fill="url(#paint34_linear_480_7469)"/>
<path d="M217.74 51.2401H99.7C98.29 51.2401 97.03 50.4501 96.4 49.1901C95.78 47.9201 95.92 46.4401 96.79 45.3201C97.52 44.3701 98.61 43.8401 99.75 43.8401H217.74C219.78 43.8401 221.44 45.5001 221.44 47.5401C221.44 49.5801 219.78 51.2401 217.74 51.2401ZM99.75 45.2401C99.04 45.2401 98.37 45.5701 97.95 46.1201C97.36 46.8801 97.27 47.7801 97.67 48.5701C98.06 49.3701 98.82 49.8401 99.71 49.8401H217.75C219.02 49.8401 220.05 48.8101 220.05 47.5401C220.05 46.2701 219.02 45.2401 217.75 45.2401H99.76H99.75Z" fill="url(#paint35_linear_480_7469)"/>
<path d="M217.739 36.88H113.439C111.879 36.88 110.519 35.93 109.989 34.46C109.449 32.99 109.879 31.4 111.069 30.39C111.799 29.78 112.639 29.47 113.509 29.47H217.739C219.779 29.47 221.439 31.13 221.439 33.17C221.439 35.21 219.779 36.87 217.739 36.87V36.88ZM113.509 30.88C112.969 30.88 112.449 31.07 112.039 31.41C111.079 32.22 111.039 33.26 111.299 33.98C111.559 34.7 112.259 35.48 113.439 35.48H217.739C219.009 35.48 220.039 34.45 220.039 33.18C220.039 31.91 219.009 30.88 217.739 30.88H113.509Z" fill="url(#paint36_linear_480_7469)"/>
<path d="M217.739 22.53H135.889C133.859 22.53 132.629 21.09 132.299 19.66C131.979 18.24 132.469 16.42 134.279 15.55L134.399 15.49C134.899 15.25 135.449 15.13 135.999 15.13H217.729C219.769 15.13 221.429 16.79 221.429 18.83C221.429 20.87 219.769 22.53 217.729 22.53H217.739ZM134.589 16.18L134.889 16.81C133.689 17.38 133.479 18.54 133.669 19.35C133.859 20.17 134.549 21.13 135.889 21.13H217.739C219.009 21.13 220.039 20.1 220.039 18.83C220.039 17.56 219.009 16.53 217.739 16.53H136.009C135.669 16.53 135.319 16.61 135.009 16.76L134.589 16.18Z" fill="url(#paint37_linear_480_7469)"/>
<path d="M217.739 8.18003H168.909C166.509 8.18003 165.319 6.37003 165.229 4.68003C165.139 3.00003 166.129 1.09003 168.509 0.840029L168.879 0.800029C169.009 0.790029 169.139 0.780029 169.279 0.780029H217.749C219.789 0.780029 221.449 2.44003 221.449 4.48003C221.449 6.52003 219.789 8.18003 217.749 8.18003H217.739ZM169.269 2.18003C169.189 2.18003 169.099 2.18003 169.019 2.19003L168.659 2.23003C167.179 2.38003 166.579 3.54003 166.629 4.61003C166.689 5.69003 167.409 6.78003 168.909 6.78003H217.739C219.009 6.78003 220.039 5.75003 220.039 4.48003C220.039 3.21003 219.009 2.18003 217.739 2.18003H169.269Z" fill="url(#paint38_linear_480_7469)"/>
</g>
<defs>
<linearGradient id="paint0_linear_480_7469" x1="27.5896" y1="297.62" x2="27.5896" y2="2.7203" gradientUnits="userSpaceOnUse">
<stop stop-color="#011A2E" stop-opacity="0.2"/>
<stop offset="1" stop-color="#CCCCCC"/>
</linearGradient>
<linearGradient id="paint1_linear_480_7469" x1="45.1696" y1="297.62" x2="45.1696" y2="2.72025" gradientUnits="userSpaceOnUse">
<stop stop-color="#011A2E" stop-opacity="0.2"/>
<stop offset="1" stop-color="#CCCCCC"/>
</linearGradient>
<linearGradient id="paint2_linear_480_7469" x1="56.3996" y1="297.62" x2="56.3996" y2="2.71985" gradientUnits="userSpaceOnUse">
<stop stop-color="#011A2E" stop-opacity="0.2"/>
<stop offset="1" stop-color="#CCCCCC"/>
</linearGradient>
<linearGradient id="paint3_linear_480_7469" x1="63.2696" y1="297.62" x2="63.2696" y2="2.71971" gradientUnits="userSpaceOnUse">
<stop stop-color="#011A2E" stop-opacity="0.2"/>
<stop offset="1" stop-color="#CCCCCC"/>
</linearGradient>
<linearGradient id="paint4_linear_480_7469" x1="67.8196" y1="297.62" x2="67.8196" y2="2.72022" gradientUnits="userSpaceOnUse">
<stop stop-color="#011A2E" stop-opacity="0.2"/>
<stop offset="1" stop-color="#CCCCCC"/>
</linearGradient>
<linearGradient id="paint5_linear_480_7469" x1="104.199" y1="297.62" x2="104.199" y2="2.71978" gradientUnits="userSpaceOnUse">
<stop stop-color="#011A2E" stop-opacity="0.2"/>
<stop offset="1" stop-color="#CCCCCC"/>
</linearGradient>
<linearGradient id="paint6_linear_480_7469" x1="108.66" y1="297.62" x2="108.66" y2="2.71976" gradientUnits="userSpaceOnUse">
<stop stop-color="#011A2E" stop-opacity="0.2"/>
<stop offset="1" stop-color="#CCCCCC"/>
</linearGradient>
<linearGradient id="paint7_linear_480_7469" x1="110.37" y1="297.62" x2="110.37" y2="2.72014" gradientUnits="userSpaceOnUse">
<stop stop-color="#011A2E" stop-opacity="0.2"/>
<stop offset="1" stop-color="#CCCCCC"/>
</linearGradient>
<linearGradient id="paint8_linear_480_7469" x1="110.919" y1="297.62" x2="110.919" y2="2.71983" gradientUnits="userSpaceOnUse">
<stop stop-color="#011A2E" stop-opacity="0.2"/>
<stop offset="1" stop-color="#CCCCCC"/>
</linearGradient>
<linearGradient id="paint9_linear_480_7469" x1="110.999" y1="297.62" x2="110.999" y2="2.72016" gradientUnits="userSpaceOnUse">
<stop stop-color="#011A2E" stop-opacity="0.2"/>
<stop offset="1" stop-color="#CCCCCC"/>
</linearGradient>
<linearGradient id="paint10_linear_480_7469" x1="111.079" y1="297.62" x2="111.079" y2="2.71991" gradientUnits="userSpaceOnUse">
<stop stop-color="#011A2E" stop-opacity="0.2"/>
<stop offset="1" stop-color="#CCCCCC"/>
</linearGradient>
<linearGradient id="paint11_linear_480_7469" x1="111.629" y1="297.62" x2="111.629" y2="2.71995" gradientUnits="userSpaceOnUse">
<stop stop-color="#011A2E" stop-opacity="0.2"/>
<stop offset="1" stop-color="#CCCCCC"/>
</linearGradient>
<linearGradient id="paint12_linear_480_7469" x1="113.339" y1="297.62" x2="113.339" y2="2.71998" gradientUnits="userSpaceOnUse">
<stop stop-color="#011A2E" stop-opacity="0.2"/>
<stop offset="1" stop-color="#CCCCCC"/>
</linearGradient>
<linearGradient id="paint13_linear_480_7469" x1="117.799" y1="297.62" x2="117.799" y2="2.71999" gradientUnits="userSpaceOnUse">
<stop stop-color="#011A2E" stop-opacity="0.2"/>
<stop offset="1" stop-color="#CCCCCC"/>
</linearGradient>
<linearGradient id="paint14_linear_480_7469" x1="176.829" y1="297.62" x2="176.829" y2="2.72" gradientUnits="userSpaceOnUse">
<stop stop-color="#011A2E" stop-opacity="0.2"/>
<stop offset="1" stop-color="#CCCCCC"/>
</linearGradient>
<linearGradient id="paint15_linear_480_7469" x1="165.599" y1="297.62" x2="165.599" y2="2.71997" gradientUnits="userSpaceOnUse">
<stop stop-color="#011A2E" stop-opacity="0.2"/>
<stop offset="1" stop-color="#CCCCCC"/>
</linearGradient>
<linearGradient id="paint16_linear_480_7469" x1="158.73" y1="297.62" x2="158.73" y2="2.72011" gradientUnits="userSpaceOnUse">
<stop stop-color="#011A2E" stop-opacity="0.2"/>
<stop offset="1" stop-color="#CCCCCC"/>
</linearGradient>
<linearGradient id="paint17_linear_480_7469" x1="154.179" y1="297.62" x2="154.179" y2="2.72008" gradientUnits="userSpaceOnUse">
<stop stop-color="#011A2E" stop-opacity="0.2"/>
<stop offset="1" stop-color="#CCCCCC"/>
</linearGradient>
<linearGradient id="paint18_linear_480_7469" x1="136.109" y1="297.62" x2="136.109" y2="2.72002" gradientUnits="userSpaceOnUse">
<stop stop-color="#011A2E" stop-opacity="0.2"/>
<stop offset="1" stop-color="#CCCCCC"/>
</linearGradient>
<linearGradient id="paint19_linear_480_7469" x1="27.5896" y1="297.62" x2="27.5896" y2="2.7203" gradientUnits="userSpaceOnUse">
<stop stop-color="#011A2E" stop-opacity="0.2"/>
<stop offset="1" stop-color="#CCCCCC"/>
</linearGradient>
<linearGradient id="paint20_linear_480_7469" x1="45.1696" y1="297.62" x2="45.1696" y2="2.72025" gradientUnits="userSpaceOnUse">
<stop stop-color="#011A2E" stop-opacity="0.2"/>
<stop offset="1" stop-color="#CCCCCC"/>
</linearGradient>
<linearGradient id="paint21_linear_480_7469" x1="56.3996" y1="297.62" x2="56.3996" y2="2.71985" gradientUnits="userSpaceOnUse">
<stop stop-color="#011A2E" stop-opacity="0.2"/>
<stop offset="1" stop-color="#CCCCCC"/>
</linearGradient>
<linearGradient id="paint22_linear_480_7469" x1="63.2696" y1="297.62" x2="63.2696" y2="2.71971" gradientUnits="userSpaceOnUse">
<stop stop-color="#011A2E" stop-opacity="0.2"/>
<stop offset="1" stop-color="#CCCCCC"/>
</linearGradient>
<linearGradient id="paint23_linear_480_7469" x1="67.8196" y1="297.62" x2="67.8196" y2="2.72022" gradientUnits="userSpaceOnUse">
<stop stop-color="#011A2E" stop-opacity="0.2"/>
<stop offset="1" stop-color="#CCCCCC"/>
</linearGradient>
<linearGradient id="paint24_linear_480_7469" x1="84.8896" y1="297.62" x2="84.8896" y2="2.72023" gradientUnits="userSpaceOnUse">
<stop stop-color="#011A2E" stop-opacity="0.2"/>
<stop offset="1" stop-color="#CCCCCC"/>
</linearGradient>
<linearGradient id="paint25_linear_480_7469" x1="104.199" y1="297.62" x2="104.199" y2="2.71992" gradientUnits="userSpaceOnUse">
<stop stop-color="#011A2E" stop-opacity="0.2"/>
<stop offset="1" stop-color="#CCCCCC"/>
</linearGradient>
<linearGradient id="paint26_linear_480_7469" x1="108.66" y1="297.62" x2="108.66" y2="2.72001" gradientUnits="userSpaceOnUse">
<stop stop-color="#011A2E" stop-opacity="0.2"/>
<stop offset="1" stop-color="#CCCCCC"/>
</linearGradient>
<linearGradient id="paint27_linear_480_7469" x1="110.37" y1="297.62" x2="110.37" y2="2.72014" gradientUnits="userSpaceOnUse">
<stop stop-color="#011A2E" stop-opacity="0.2"/>
<stop offset="1" stop-color="#CCCCCC"/>
</linearGradient>
<linearGradient id="paint28_linear_480_7469" x1="110.919" y1="297.62" x2="110.919" y2="2.71983" gradientUnits="userSpaceOnUse">
<stop stop-color="#011A2E" stop-opacity="0.2"/>
<stop offset="1" stop-color="#CCCCCC"/>
</linearGradient>
<linearGradient id="paint29_linear_480_7469" x1="110.999" y1="297.62" x2="110.999" y2="2.72016" gradientUnits="userSpaceOnUse">
<stop stop-color="#011A2E" stop-opacity="0.2"/>
<stop offset="1" stop-color="#CCCCCC"/>
</linearGradient>
<linearGradient id="paint30_linear_480_7469" x1="111.079" y1="297.62" x2="111.079" y2="2.71991" gradientUnits="userSpaceOnUse">
<stop stop-color="#011A2E" stop-opacity="0.2"/>
<stop offset="1" stop-color="#CCCCCC"/>
</linearGradient>
<linearGradient id="paint31_linear_480_7469" x1="111.629" y1="297.62" x2="111.629" y2="2.71992" gradientUnits="userSpaceOnUse">
<stop stop-color="#011A2E" stop-opacity="0.2"/>
<stop offset="1" stop-color="#CCCCCC"/>
</linearGradient>
<linearGradient id="paint32_linear_480_7469" x1="113.339" y1="297.62" x2="113.339" y2="2.71998" gradientUnits="userSpaceOnUse">
<stop stop-color="#011A2E" stop-opacity="0.2"/>
<stop offset="1" stop-color="#CCCCCC"/>
</linearGradient>
<linearGradient id="paint33_linear_480_7469" x1="117.799" y1="297.62" x2="117.799" y2="2.72005" gradientUnits="userSpaceOnUse">
<stop stop-color="#011A2E" stop-opacity="0.2"/>
<stop offset="1" stop-color="#CCCCCC"/>
</linearGradient>
<linearGradient id="paint34_linear_480_7469" x1="154.179" y1="297.62" x2="154.179" y2="2.72008" gradientUnits="userSpaceOnUse">
<stop stop-color="#011A2E" stop-opacity="0.2"/>
<stop offset="1" stop-color="#CCCCCC"/>
</linearGradient>
<linearGradient id="paint35_linear_480_7469" x1="158.73" y1="297.62" x2="158.73" y2="2.72011" gradientUnits="userSpaceOnUse">
<stop stop-color="#011A2E" stop-opacity="0.2"/>
<stop offset="1" stop-color="#CCCCCC"/>
</linearGradient>
<linearGradient id="paint36_linear_480_7469" x1="165.599" y1="297.62" x2="165.599" y2="2.71997" gradientUnits="userSpaceOnUse">
<stop stop-color="#011A2E" stop-opacity="0.2"/>
<stop offset="1" stop-color="#CCCCCC"/>
</linearGradient>
<linearGradient id="paint37_linear_480_7469" x1="176.829" y1="297.62" x2="176.829" y2="2.72" gradientUnits="userSpaceOnUse">
<stop stop-color="#011A2E" stop-opacity="0.2"/>
<stop offset="1" stop-color="#CCCCCC"/>
</linearGradient>
<linearGradient id="paint38_linear_480_7469" x1="193.329" y1="297.62" x2="193.329" y2="2.72001" gradientUnits="userSpaceOnUse">
<stop stop-color="#011A2E" stop-opacity="0.2"/>
<stop offset="1" stop-color="#CCCCCC"/>
</linearGradient>
<clipPath id="clip0_480_7469">
<rect width="220.88" height="294.44" fill="white" transform="translate(0.55957 0.780029)"/>
</clipPath>
</defs>
</svg>
