<svg width="12" height="12" viewBox="0 0 12 12" fill="none" xmlns="http://www.w3.org/2000/svg">
<g clip-path="url(#clip0_728_3316)">
<path fill-rule="evenodd" clip-rule="evenodd" d="M11.347 3.75007H8.24993V0.65303C8.24993 0.292483 7.95772 0 7.59718 0H0.65303C0.292483 0 0 0.292483 0 0.65303V7.5969C0 7.95772 0.292483 8.24993 0.65303 8.24993H3.75007V11.347C3.75007 11.7075 4.04228 12 4.4031 12H11.347C11.7078 12 12 11.7075 12 11.347V4.4031C12 4.04228 11.7078 3.75007 11.347 3.75007ZM3.75007 4.4031V7.1251H1.1251V1.1251H7.1251V3.75007H4.4031C4.04228 3.75007 3.75007 4.04228 3.75007 4.4031ZM7.1251 4.8749V7.1251H4.8749V4.8749H7.1251ZM10.8749 10.8749H4.8749V8.24993H7.59718C7.95772 8.24993 8.24993 7.95772 8.24993 7.5969V4.8749H10.8749V10.8749Z" fill="#00FEAE"/>
</g>
<defs>
<clipPath id="clip0_728_3316">
<rect width="12" height="12" fill="white"/>
</clipPath>
</defs>
</svg>
